<svg xmlns="http://www.w3.org/2000/svg" viewBox="0 0 256 256" width="256" height="256">
  <rect width="256" height="256" rx="52" fill="#2c3e50"/>
  <g transform="translate(28,28) scale(0.78125)">
    <path d="M222.14,105.85l-80-80a20,20,0,0,0-28.28,0l-80,80A19.86,19.86,0,0,0,28,120v96a12,12,0,0,0,12,12h64a12,12,0,0,0,12-12V164h24v52a12,12,0,0,0,12,12h64a12,12,0,0,0,12-12V120A19.86,19.86,0,0,0,222.14,105.85ZM204,204H164V152a12,12,0,0,0-12-12H104a12,12,0,0,0-12,12v52H52V121.65l76-76,76,76Z"/>
  </g>
</svg>